<svg width="19" height="19" viewBox="0 0 19 19" fill="none" xmlns="http://www.w3.org/2000/svg">
<path fill-rule="evenodd" clip-rule="evenodd" d="M1.58334 9.5045C1.58334 5.13487 5.13667 1.58325 9.5 1.58325C13.8633 1.58325 17.4167 5.13487 17.4167 9.5045C17.4167 13.865 13.8633 17.4166 9.5 17.4166C5.13667 17.4166 1.58334 13.865 1.58334 9.5045ZM12.4038 10.3057C12.4879 10.2217 12.5948 10.0919 12.6178 10.0613C12.74 9.90091 12.8012 9.70232 12.8012 9.5045C12.8012 9.28224 12.7324 9.07602 12.6025 8.90798C12.5918 8.89734 12.571 8.87465 12.5438 8.84508C12.493 8.78976 12.42 8.71034 12.3503 8.64066C11.7237 7.96852 10.0884 6.86867 9.23255 6.5326C9.10264 6.4799 8.77405 6.36457 8.5983 6.35693C8.43018 6.35693 8.26971 6.39512 8.11688 6.4715C7.92584 6.57843 7.77301 6.74646 7.68895 6.94505C7.63546 7.08253 7.5514 7.49497 7.5514 7.50261C7.46735 7.95325 7.4215 8.68648 7.4215 9.4961C7.4215 10.2683 7.46735 10.9702 7.53612 11.4285C7.53801 11.4304 7.54458 11.4632 7.5548 11.5141C7.58584 11.6689 7.65052 11.9913 7.71952 12.1235C7.88763 12.4443 8.21622 12.6429 8.56773 12.6429H8.5983C8.82754 12.6353 9.30896 12.4367 9.30896 12.429C10.119 12.093 11.7161 11.0466 12.358 10.3515L12.4038 10.3057Z" fill="white"/>
</svg>
