<svg width="19" height="19" viewBox="0 0 19 19" fill="none" xmlns="http://www.w3.org/2000/svg">
<path d="M16.1908 10.989C15.9853 8.39147 14.7392 6.76372 13.64 5.32732C12.6222 3.99753 11.7431 2.84919 11.7431 1.15522C11.7431 1.01915 11.6645 0.894783 11.5401 0.83243C11.4152 0.769703 11.2651 0.779976 11.1516 0.860052C9.50073 2.00663 8.12328 3.93909 7.64211 5.78295C7.30807 7.06664 7.26388 8.50978 7.25768 9.4629C5.7331 9.14684 5.38774 6.93343 5.38409 6.90931C5.36692 6.79451 5.29465 6.6946 5.18951 6.64004C5.08328 6.58619 4.9584 6.58228 4.8507 6.63402C4.77076 6.67157 2.88838 7.59989 2.77885 11.3064C2.77118 11.4297 2.77083 11.5534 2.77083 11.6771C2.77083 15.278 5.78967 18.2079 9.5 18.2079C9.50511 18.2082 9.51058 18.2089 9.51496 18.2079C9.51643 18.2079 9.51787 18.2079 9.51969 18.2079C13.2209 18.1976 16.2292 15.2716 16.2292 11.6771C16.2292 11.496 16.1908 10.989 16.1908 10.989ZM9.5 17.4822C8.26309 17.4822 7.25694 16.4419 7.25694 15.1632C7.25694 15.1196 7.25659 15.0757 7.25985 15.0218C7.27481 14.4826 7.38034 14.1144 7.49607 13.8696C7.71295 14.3217 8.10064 14.7373 8.73042 14.7373C8.93706 14.7373 9.10427 14.575 9.10427 14.3745C9.10427 13.8579 9.11524 13.2619 9.24776 12.7241C9.36569 12.2471 9.64751 11.7397 10.0046 11.333C10.1634 11.861 10.473 12.2882 10.7753 12.7053C11.2079 13.3019 11.6551 13.9188 11.7336 14.9708C11.7384 15.0332 11.7431 15.0959 11.7431 15.1632C11.7431 16.4419 10.7369 17.4822 9.5 17.4822Z" fill="white"/>
</svg>
